<?xml version="1.0" encoding="utf-8"?>
<!-- Generator: Adobe Illustrator 23.0.0, SVG Export Plug-In . SVG Version: 6.00 Build 0)  -->
<svg version="1.1" id="Illustration" xmlns="http://www.w3.org/2000/svg" xmlns:xlink="http://www.w3.org/1999/xlink" x="0px"
	 y="0px" viewBox="0 0 3710 3710" style="enable-background:new 0 0 3710 3710;" xml:space="preserve">
<style type="text/css">
	.st0{fill:url(#SVGID_1_);}
	.st1{fill:url(#SVGID_2_);}
	.st2{opacity:0.21;fill:#91B3FA;}
	.st3{fill:url(#SVGID_3_);}
	.st4{fill:#7D97F4;}
	.st5{fill:#FFFFFF;}
	.st6{fill:url(#SVGID_4_);}
	.st7{fill:#91B3FA;}
	.st8{opacity:0.51;fill:#FFFFFF;}
	.st9{opacity:0.51;}
	.st10{opacity:0.7;fill:#FFFFFF;}
	.st11{fill:url(#SVGID_5_);}
	.st12{opacity:0.61;fill:#FFFFFF;}
	.st13{fill:url(#SVGID_6_);}
	.st14{fill:url(#SVGID_7_);}
	.st15{fill:url(#SVGID_8_);}
	.st16{fill:url(#SVGID_9_);}
	.st17{fill:url(#SVGID_10_);}
	.st18{fill:url(#SVGID_11_);}
	.st19{fill:url(#SVGID_12_);}
	.st20{fill:url(#SVGID_13_);}
	.st21{fill:url(#SVGID_14_);}
	.st22{fill:url(#SVGID_15_);}
	.st23{fill:url(#SVGID_16_);}
	.st24{fill:url(#SVGID_17_);}
	.st25{fill:url(#SVGID_18_);}
	.st26{fill:url(#SVGID_19_);}
</style>
<g>
	<linearGradient id="SVGID_1_" gradientUnits="userSpaceOnUse" x1="3445.854" y1="3280.4175" x2="1434.6722" y2="1520.6348">
		<stop  offset="0" style="stop-color:#DAE3FE"/>
		<stop  offset="1" style="stop-color:#E9EFFD"/>
	</linearGradient>
	<path class="st0" d="M3096.5,2370.4c-258.3,617.1-946.4,962.8-1543,869.5c-97.1-15.2-363.3-60.4-598.9-273.6
		C500.9,2555.8,403.8,1743,769.8,1170.1c266.4-416.9,743.8-653.3,1197.5-641.4c97.7,2.5,472.3,18.2,801.4,293.6
		c48.3,40.4,155,136.6,251.1,289C3245.5,1469.4,3264.9,1968.2,3096.5,2370.4z"/>
	<g>
		
			<linearGradient id="SVGID_2_" gradientUnits="userSpaceOnUse" x1="1569.6445" y1="654.7253" x2="-583.6176" y2="3995.998" gradientTransform="matrix(-1 0 0 1 2257.3284 0)">
			<stop  offset="0" style="stop-color:#4F52FF"/>
			<stop  offset="1" style="stop-color:#4042E2"/>
		</linearGradient>
		<path class="st1" d="M479.1,2255.2c44.1-188.2,188.3-336,371.9-381.2c126.2-31.1,247.3-14.4,349.7,35.9
			c33.9,16.7,74.3-2.2,83.7-39.6c90.5-359.6,408.9-625.3,787.9-625.3c449.4,0,813.7,373.5,813.7,834.3c0,12.2-0.2,28.9-0.4,45
			c1.6,34.5,16.3,49.1,38.2,52.8c176.1,18.8,314.4,167.6,322.1,351.2c8.8,210.8-158.5,385.4-364.2,385.4H978.5
			C652.7,2913.7,397.6,2603.3,479.1,2255.2z"/>
		<path class="st2" d="M626.5,2325.8c39.4-168.1,168.1-300,332.1-340.4c112.7-27.7,220.8-12.9,312.2,32.1
			c30.3,14.9,66.3-2,74.7-35.3c80.8-321.1,365.1-558.3,703.5-558.3c401.2,0,726.5,333.5,726.5,744.9c0,10.9-0.2,25.8-0.4,40.2
			c1.4,30.8,14.5,43.8,34.1,47.1c157.2,16.8,280.8,149.7,287.6,313.6c7.9,188.2-141.5,344.1-325.2,344.1H1072.4
			C781.5,2913.7,553.7,2636.6,626.5,2325.8z"/>
	</g>
	<g>
		
			<linearGradient id="SVGID_3_" gradientUnits="userSpaceOnUse" x1="-617.4517" y1="3100.1987" x2="-258.9354" y2="2024.6469" gradientTransform="matrix(-1 0 0 1 1155.7772 0)">
			<stop  offset="0" style="stop-color:#09005D"/>
			<stop  offset="1" style="stop-color:#1A0F91"/>
		</linearGradient>
		<path class="st3" d="M847.5,3139.2c0,15.4,12.6,28,28.1,28h1518c15.4,0,28.1-12.6,28.1-28l12.6-872.3c0-15.4-18.2-45.5-51.5-43.3
			l-1483.5-38.4c-19.4-0.5-38.1,7-51.8,20.6s-21.2,32.4-20.8,51.7L847.5,3139.2z"/>
		<path class="st4" d="M875.2,3112.3c0,14.6,12,26.6,26.6,26.6H2357c14.6,0,26.6-12,26.6-26.6l11.9-791.9
			c-1.4-47.7-43.2-64.8-68.5-63.8l-1421.8-38.1c-13.6-0.4-26.8,4.9-36.4,14.5c-9.6,9.6-14.9,22.8-14.6,36.4L875.2,3112.3z"/>
		<g>
			<path class="st5" d="M2367.8,2736.1C2367.8,2736.1,2367.8,2736.1,2367.8,2736.1c-2.2,0-3.9-1.8-3.9-4l0.9-64.2
				c0-2.1,1.8-3.8,3.9-3.8c0,0,0,0,0,0c2.2,0,3.9,1.8,3.9,4l-0.9,64.2C2371.7,2734.4,2369.9,2736.1,2367.8,2736.1z"/>
			<path class="st5" d="M2370.1,2578.7C2370.1,2578.7,2370.1,2578.7,2370.1,2578.7c-2.2,0-3.9-1.8-3.9-4l3.6-246
				c-0.1-14.6-4.5-26.3-13.2-34.6c-16.2-15.5-41.9-14.7-43-14.7l-454.5-12.2c-2.1-0.1-3.8-1.8-3.8-4c0.1-2.1,1.7-4,4-3.8l454.2,12.2
				c2.8-0.2,30.2-0.6,48.5,16.8c10.3,9.8,15.5,23.4,15.6,40.3l-3.6,246.1C2374,2577,2372.2,2578.7,2370.1,2578.7z"/>
		</g>
		
			<linearGradient id="SVGID_4_" gradientUnits="userSpaceOnUse" x1="216.7059" y1="3035.9185" x2="-1379.6344" y2="3424.2173" gradientTransform="matrix(-1 0 0 1 1155.7772 0)">
			<stop  offset="0" style="stop-color:#09005D"/>
			<stop  offset="1" style="stop-color:#1A0F91"/>
		</linearGradient>
		<path class="st6" d="M730,3239.7h1778.3c3.1,0,5.7-2.5,5.7-5.7v-65.3c0-3.1-2.5-5.7-5.7-5.7H730c-3.1,0-5.7,2.5-5.7,5.7v65.3
			C724.4,3237.1,726.9,3239.7,730,3239.7z"/>
		<path class="st7" d="M1506.5,3100.2H946.3c-20.7,0-37.4-16.7-37.4-37.4v-731.3c0-21.2,17.6-38.2,38.8-37.4l560.3,21.4
			c20.1,0.8,36,17.3,36,37.4v709.9C1544,3083.5,1527.2,3100.2,1506.5,3100.2z"/>
		<g>
			<path class="st8" d="M1395.1,2630.3H1024c-2.9,0-5.3-2.4-5.3-5.3v-38.7c0-2.9,2.4-5.3,5.3-5.3h371.1c2.9,0,5.3,2.4,5.3,5.3v38.7
				C1400.4,2627.9,1398.1,2630.3,1395.1,2630.3z"/>
			<path class="st8" d="M1395.9,2709.1h-371.1c-2.9,0-5.3-2.4-5.3-5.3v-38.7c0-2.9,2.4-5.3,5.3-5.3h371.1c2.9,0,5.3,2.4,5.3,5.3
				v38.7C1401.2,2706.7,1398.8,2709.1,1395.9,2709.1z"/>
			<path class="st8" d="M1398.1,2789.5H1027c-2.9,0-5.3-2.4-5.3-5.3v-38.7c0-2.9,2.4-5.3,5.3-5.3h371.1c2.9,0,5.3,2.4,5.3,5.3v38.7
				C1403.4,2787.1,1401,2789.5,1398.1,2789.5z"/>
			<path class="st8" d="M1398.8,2868.3h-371.1c-2.9,0-5.3-2.4-5.3-5.3v-38.7c0-2.9,2.4-5.3,5.3-5.3h371.1c2.9,0,5.3,2.4,5.3,5.3
				v38.7C1404.2,2865.9,1401.8,2868.3,1398.8,2868.3z"/>
		</g>
		<g>
			<path class="st8" d="M2209,2630.3h-538.2c-2.9,0-5.3-2.4-5.3-5.3v-38.7c0-2.9,2.4-5.3,5.3-5.3H2209c2.9,0,5.3,2.4,5.3,5.3v38.7
				C2214.3,2627.9,2212,2630.3,2209,2630.3z"/>
			<path class="st8" d="M2210.7,2709.1h-538.2c-2.9,0-5.3-2.4-5.3-5.3v-38.7c0-2.9,2.4-5.3,5.3-5.3h538.2c2.9,0,5.3,2.4,5.3,5.3
				v38.7C2216,2706.7,2213.7,2709.1,2210.7,2709.1z"/>
			<path class="st8" d="M1987.1,2789.5h-314.6c-2.9,0-5.3-2.4-5.3-5.3v-38.7c0-2.9,2.4-5.3,5.3-5.3h314.6c2.9,0,5.3,2.4,5.3,5.3
				v38.7C1992.4,2787.1,1990,2789.5,1987.1,2789.5z"/>
			<g class="st9">
				<path class="st5" d="M1956.8,2397.1h-8.4c-4.2,0-7.5-3.4-7.5-7.5V2361c0-10.2-8.3-18.5-18.5-18.5h-51.8
					c-10.2,0-18.5,8.3-18.5,18.5v28.6c0,4.2-3.4,7.5-7.5,7.5h-8.4c-4.2,0-7.5-3.4-7.5-7.5V2361c0-23.2,18.8-41.9,41.9-41.9h51.8
					c23.2,0,41.9,18.8,41.9,41.9v28.6C1964.4,2393.8,1961,2397.1,1956.8,2397.1z"/>
				<path class="st5" d="M1967.2,2403.9h-141.3c-8.7,0-15.7,7-15.7,15.7V2528c0,8.7,7,15.7,15.7,15.7h141.3c8.7,0,15.7-7,15.7-15.7
					v-108.5C1982.9,2410.9,1975.9,2403.9,1967.2,2403.9z M1916.8,2508.7c0.9,3.7-1.9,7.2-5.6,7.2H1882c-3.8,0-6.5-3.5-5.6-7.2
					l6.8-28.3c-8-4.8-13.3-13.8-12.7-23.9c0.7-13.1,11.3-23.9,24.5-24.7c15.2-0.9,27.9,11.1,27.9,26.1c0,9.6-5.1,17.9-12.8,22.5
					L1916.8,2508.7z"/>
			</g>
		</g>
	</g>
	<g>
		<g>
			<g>
				<path class="st7" d="M2368.2,1130.8c-0.6,0-1.1-0.1-1.6-0.4c-1.6-0.9-2.2-3-1.3-4.6c2.2-3.9,4.3-7.8,6.3-11.8
					c0.9-1.7,2.9-2.3,4.5-1.4c1.7,0.9,2.3,2.9,1.4,4.5c-2.1,4-4.2,8-6.4,12C2370.6,1130.2,2369.4,1130.8,2368.2,1130.8z"/>
				<path class="st7" d="M1974.4,1362.6c-2,0-4,0-6,0c-1.9,0-3.3-1.6-3.3-3.4c0-1.8,1.5-3.3,3.4-3.3h0c8.7,0.1,17.5,0,26.2-0.4
					c1.7-0.1,3.4,1.4,3.5,3.2c0.1,1.9-1.4,3.4-3.2,3.5C1988.2,1362.5,1981.3,1362.6,1974.4,1362.6z M1925.7,1360c-0.1,0-0.2,0-0.4,0
					c-8.8-1-17.7-2.2-26.3-3.6c-1.8-0.3-3.1-2-2.8-3.9c0.3-1.8,2.1-3.1,3.9-2.8c8.6,1.4,17.3,2.6,26,3.6c1.8,0.2,3.2,1.9,3,3.7
					C1928.9,1358.7,1927.4,1360,1925.7,1360z M2037.6,1358.2c-1.7,0-3.1-1.2-3.3-2.9c-0.3-1.8,1-3.5,2.9-3.8
					c8.6-1.2,17.3-2.7,25.8-4.4c1.8-0.4,3.6,0.8,4,2.6c0.4,1.8-0.8,3.6-2.6,4c-8.6,1.7-17.5,3.2-26.2,4.5
					C2037.9,1358.2,2037.8,1358.2,2037.6,1358.2z M1857.6,1347.3c-0.3,0-0.6,0-0.9-0.1c-8.5-2.3-17.1-4.8-25.5-7.6
					c-1.8-0.6-2.7-2.5-2.1-4.3c0.6-1.8,2.5-2.7,4.3-2.1c8.3,2.7,16.7,5.3,25.1,7.5c1.8,0.5,2.9,2.3,2.4,4.1
					C1860.5,1346.3,1859.1,1347.3,1857.6,1347.3z M2105.2,1343.3c-1.4,0-2.8-0.9-3.2-2.4c-0.5-1.8,0.5-3.7,2.2-4.2
					c8.3-2.5,16.7-5.3,24.8-8.3c1.7-0.6,3.7,0.2,4.3,2c0.6,1.7-0.3,3.7-2,4.3c-8.3,3-16.8,5.9-25.2,8.5
					C2105.9,1343.2,2105.5,1343.3,2105.2,1343.3z M1792.3,1324.3c-0.5,0-0.9-0.1-1.4-0.3c-8.1-3.6-16.2-7.4-24-11.4
					c-1.7-0.8-2.3-2.9-1.5-4.5c0.9-1.6,2.9-2.3,4.5-1.5c7.7,4,15.7,7.8,23.6,11.3c1.7,0.7,2.5,2.7,1.7,4.4
					C1794.8,1323.6,1793.6,1324.3,1792.3,1324.3z M2169.7,1318.1c-1.3,0-2.5-0.7-3-1.9c-0.8-1.7-0.1-3.7,1.6-4.5
					c7.8-3.8,15.7-7.8,23.3-12.1c1.6-0.9,3.7-0.3,4.6,1.3c0.9,1.6,0.3,3.7-1.3,4.6c-7.7,4.3-15.7,8.4-23.6,12.3
					C2170.7,1318,2170.2,1318.1,2169.7,1318.1z M1731.3,1291.6c-0.6,0-1.3-0.2-1.8-0.5c-7.4-4.8-14.8-9.8-21.9-15
					c-1.5-1.1-1.8-3.2-0.7-4.7c1.1-1.5,3.2-1.8,4.7-0.7c7,5.1,14.3,10.1,21.6,14.8c1.6,1,2,3.1,1,4.7
					C1733.5,1291.1,1732.4,1291.6,1731.3,1291.6z M2229.6,1283.3c-1.1,0-2.1-0.5-2.8-1.5c-1.1-1.5-0.7-3.6,0.9-4.7
					c7.2-4.9,14.3-10.2,21.1-15.5c1.5-1.1,3.6-0.9,4.7,0.6c1.1,1.5,0.9,3.6-0.6,4.7c-7,5.4-14.2,10.7-21.5,15.7
					C2230.9,1283.1,2230.3,1283.3,2229.6,1283.3z M1676.1,1249.9c-0.8,0-1.6-0.3-2.2-0.8c-6.6-5.8-13.1-12-19.4-18.2
					c-1.3-1.3-1.3-3.4,0-4.8c1.3-1.3,3.4-1.3,4.8,0c6.2,6.1,12.6,12.2,19.1,17.9c1.4,1.2,1.5,3.4,0.3,4.8
					C1678,1249.5,1677.1,1249.9,1676.1,1249.9z M2283.5,1239.8c-0.9,0-1.8-0.4-2.4-1.1c-1.3-1.4-1.2-3.5,0.1-4.8
					c6.3-6,12.6-12.2,18.5-18.5c1.3-1.3,3.4-1.4,4.8-0.1c1.4,1.3,1.4,3.4,0.1,4.8c-6.1,6.4-12.4,12.7-18.8,18.8
					C2285.1,1239.5,2284.3,1239.8,2283.5,1239.8z M1627.9,1200.2c-1,0-1.9-0.4-2.6-1.2c-5.6-6.8-11.2-13.8-16.4-20.9
					c-1.1-1.5-0.8-3.6,0.7-4.7c1.5-1.1,3.6-0.8,4.7,0.7c5.2,7,10.6,13.9,16.2,20.6c1.2,1.4,1,3.6-0.4,4.7
					C1629.5,1199.9,1628.7,1200.2,1627.9,1200.2z M2330.1,1188.6c-0.7,0-1.4-0.2-2.1-0.7c-1.5-1.1-1.7-3.3-0.6-4.7
					c5.4-6.9,10.6-14,15.5-21.1c1.1-1.5,3.2-1.9,4.7-0.9c1.5,1.1,1.9,3.2,0.9,4.7c-5,7.2-10.3,14.5-15.7,21.5
					C2332.1,1188.1,2331.1,1188.6,2330.1,1188.6z M1587.8,1143.7c-1.1,0-2.3-0.6-2.9-1.6c-4.6-7.6-8.9-15.4-13-23.2
					c-0.9-1.6-0.2-3.7,1.4-4.5c1.6-0.9,3.7-0.2,4.5,1.4c4,7.7,8.3,15.4,12.8,22.8c1,1.6,0.4,3.7-1.2,4.6
					C1589,1143.6,1588.4,1143.7,1587.8,1143.7z M1556.9,1081.8c-1.3,0-2.6-0.8-3.1-2.1c-3.3-8.2-6.5-16.6-9.3-24.9
					c-0.6-1.8,0.3-3.7,2.1-4.3c1.7-0.6,3.7,0.3,4.3,2.1c2.8,8.2,5.9,16.5,9.1,24.6c0.7,1.7-0.1,3.7-1.9,4.4
					C1557.7,1081.7,1557.3,1081.8,1556.9,1081.8z"/>
				<path class="st7" d="M1535.8,1015.6c-1.5,0-2.9-1-3.3-2.6c-1-4.4-2-8.8-2.9-13.2c-0.4-1.8,0.8-3.6,2.6-4c1.8-0.4,3.6,0.8,4,2.6
					c0.9,4.4,1.8,8.7,2.9,13c0.4,1.8-0.7,3.6-2.5,4C1536.3,1015.6,1536.1,1015.6,1535.8,1015.6z"/>
			</g>
			<g>
				<path class="st7" d="M1592.9,672.3c-0.6,0-1.2-0.2-1.8-0.5c-1.6-1-2-3.1-1.1-4.6c2.4-3.8,4.9-7.6,7.4-11.4c1-1.5,3.1-2,4.7-0.9
					c1.5,1,2,3.1,0.9,4.7c-2.5,3.7-4.9,7.4-7.3,11.2C1595.1,671.8,1594,672.3,1592.9,672.3z"/>
				<path class="st7" d="M2406.6,785.1c-1.5,0-2.8-1-3.2-2.4c-2.6-8.8-5.5-17.6-8.6-26.2c-0.6-1.7,0.3-3.7,2-4.3
					c1.7-0.6,3.7,0.3,4.3,2c3.2,8.7,6.1,17.7,8.7,26.6c0.5,1.8-0.5,3.7-2.3,4.2C2407.2,785,2406.9,785.1,2406.6,785.1z
					 M2380.5,717.1c-1.3,0-2.5-0.7-3-1.9c-4-8.3-8.2-16.5-12.7-24.4c-0.9-1.6-0.3-3.7,1.3-4.6c1.6-0.9,3.7-0.3,4.6,1.3
					c4.5,8.1,8.9,16.4,12.9,24.8c0.8,1.7,0.1,3.7-1.6,4.5C2381.4,717,2381,717.1,2380.5,717.1z M2343.7,654.3
					c-1.1,0-2.1-0.5-2.8-1.4c-5.2-7.5-10.8-14.9-16.5-22.1c-1.2-1.5-0.9-3.6,0.5-4.7c1.5-1.2,3.6-0.9,4.7,0.5
					c5.8,7.3,11.4,14.8,16.7,22.4c1.1,1.5,0.7,3.6-0.8,4.7C2345,654.1,2344.4,654.3,2343.7,654.3z M1627.2,624.9
					c-0.8,0-1.5-0.3-2.1-0.8c-1.4-1.2-1.6-3.3-0.4-4.7c5.9-7.1,12.1-14.2,18.5-21c1.3-1.4,3.4-1.4,4.8-0.2c1.4,1.3,1.4,3.4,0.2,4.8
					c-6.3,6.7-12.4,13.6-18.2,20.6C1629.2,624.5,1628.2,624.9,1627.2,624.9z M2297.3,598.2c-0.9,0-1.8-0.3-2.4-1
					c-6.3-6.5-13-13-19.8-19.2c-1.4-1.3-1.5-3.4-0.2-4.8c1.3-1.4,3.4-1.5,4.8-0.2c6.9,6.3,13.6,12.8,20.1,19.5
					c1.3,1.3,1.3,3.5-0.1,4.8C2299,597.9,2298.1,598.2,2297.3,598.2z M1678.1,572.8c-0.9,0-1.9-0.4-2.5-1.2
					c-1.2-1.4-1.1-3.5,0.3-4.8c7-6.1,14.3-12.1,21.6-17.8c1.5-1.1,3.6-0.9,4.7,0.6c1.1,1.5,0.9,3.6-0.6,4.7
					c-7.2,5.6-14.4,11.5-21.3,17.5C1679.7,572.5,1678.9,572.8,1678.1,572.8z M2242.6,550.2c-0.7,0-1.4-0.2-2-0.7
					c-7.3-5.5-14.9-10.7-22.6-15.7c-1.6-1-2-3.1-1-4.7c1-1.6,3.1-2,4.7-1c7.8,5.1,15.5,10.4,22.9,16c1.5,1.1,1.8,3.2,0.7,4.7
					C2244.6,549.8,2243.6,550.2,2242.6,550.2z M1736.6,529.5c-1.1,0-2.2-0.6-2.9-1.6c-1-1.6-0.5-3.7,1.1-4.6c7.9-4.9,16-9.6,24.2-14
					c1.6-0.9,3.7-0.3,4.6,1.4c0.9,1.6,0.3,3.7-1.4,4.6c-8.1,4.3-16.1,9-23.8,13.8C1737.8,529.3,1737.2,529.5,1736.6,529.5z
					 M2180.9,511.7c-0.5,0-1-0.1-1.5-0.4c-8.1-4.2-16.5-8.2-24.9-11.9c-1.7-0.7-2.5-2.7-1.7-4.4c0.7-1.7,2.7-2.5,4.4-1.7
					c8.5,3.7,17,7.8,25.2,12c1.7,0.9,2.3,2.9,1.4,4.5C2183.2,511.1,2182.1,511.7,2180.9,511.7z M1801.3,496.1
					c-1.3,0-2.6-0.8-3.1-2.1c-0.7-1.7,0.1-3.7,1.8-4.4c8.6-3.6,17.3-6.9,26.1-9.9c1.8-0.6,3.7,0.3,4.3,2.1c0.6,1.8-0.3,3.7-2.1,4.3
					c-8.7,3-17.3,6.3-25.8,9.8C1802.2,496.1,1801.7,496.1,1801.3,496.1z M2113.7,483.7c-0.3,0-0.7-0.1-1-0.2
					c-8.7-2.8-17.6-5.4-26.4-7.7c-1.8-0.5-2.9-2.3-2.4-4.1c0.5-1.8,2.3-2.9,4.1-2.4c9,2.3,18,4.9,26.8,7.8c1.8,0.6,2.7,2.5,2.2,4.2
					C2116.4,482.8,2115.1,483.7,2113.7,483.7z M1870.6,473.7c-1.5,0-2.9-1-3.3-2.6c-0.4-1.8,0.7-3.6,2.5-4.1
					c9.1-2.1,18.3-4,27.4-5.6c1.9-0.3,3.6,0.9,3.9,2.7c0.3,1.8-0.9,3.6-2.7,3.9c-9,1.5-18.1,3.4-27,5.5
					C1871.1,473.7,1870.8,473.7,1870.6,473.7z M2042.9,467c-0.2,0-0.3,0-0.5,0c-9-1.4-18.2-2.5-27.3-3.3c-1.9-0.2-3.2-1.8-3-3.7
					c0.2-1.9,1.8-3.2,3.7-3c9.2,0.8,18.6,2,27.8,3.4c1.8,0.3,3.1,2,2.8,3.8C2045.9,465.8,2044.5,467,2042.9,467z M1942.5,462.8
					c-1.8,0-3.2-1.4-3.4-3.1c-0.1-1.9,1.3-3.5,3.1-3.6c9.2-0.7,18.6-1,27.9-1.1h0c1.8,0,3.4,1.5,3.4,3.3c0,1.9-1.5,3.4-3.3,3.4
					c-9.2,0.1-18.4,0.4-27.5,1.1C1942.7,462.8,1942.6,462.8,1942.5,462.8z"/>
				<path class="st7" d="M2419.3,842.4c-1.6,0-3.1-1.2-3.3-2.8c-0.7-4.4-1.4-8.8-2.3-13.2c-0.3-1.8,0.9-3.6,2.7-3.9
					c1.8-0.3,3.6,0.9,3.9,2.7c0.8,4.4,1.6,8.9,2.3,13.4c0.3,1.8-1,3.6-2.8,3.8C2419.7,842.4,2419.5,842.4,2419.3,842.4z"/>
			</g>
			<g>
				<path class="st7" d="M2320.2,898.7c0.2-2.3-1.1-4.5-3.2-5.4l-60.4-26.2c-4.7-30.4-14.2-60.2-28.7-88.3l33.3-56.7
					c1.2-2,0.9-4.5-0.6-6.3l-51.3-60c-1.5-1.8-3.9-2.4-6.1-1.5l-61.2,24.1c-25.5-18.7-53.5-32.8-82.8-42.1l-16.6-63.7
					c-0.6-2.2-2.5-3.9-4.8-4l-78.7-6.1c-2.3-0.2-4.5,1.1-5.4,3.2l-26.2,60.4c-30.4,4.7-60.2,14.2-88.3,28.7l-56.7-33.3
					c-2-1.2-4.5-0.9-6.3,0.6l-60,51.3c-1.8,1.5-2.4,3.9-1.5,6.1l24.1,61.2c-18.7,25.5-32.8,53.5-42.1,82.8l-63.7,16.6
					c-2.2,0.6-3.8,2.5-4,4.8l-6.1,78.7c-0.2,2.3,1.1,4.5,3.2,5.4l60.4,26.2c4.7,30.4,14.2,60.2,28.7,88.3l-33.3,56.7
					c-1.2,2-0.9,4.5,0.6,6.3l51.3,60c1.5,1.8,3.9,2.4,6.1,1.5l61.2-24.1c25.5,18.7,53.5,32.8,82.8,42.1l16.6,63.7
					c0.6,2.2,2.5,3.9,4.8,4l78.7,6.1c2.3,0.2,4.5-1.1,5.4-3.2l26.2-60.4c30.4-4.7,60.2-14.2,88.3-28.7l56.7,33.3
					c2,1.2,4.5,0.9,6.3-0.6l60-51.3c1.8-1.5,2.4-3.9,1.5-6.1l-24.1-61.2c18.7-25.5,32.8-53.5,42.1-82.8l63.7-16.6
					c2.2-0.6,3.9-2.5,4-4.8L2320.2,898.7z"/>
				<path class="st10" d="M1971.5,986.3c-15.4,0-30.4-4.7-43.2-13.8c-33.8-23.9-41.9-70.9-17.9-104.7c11.6-16.4,28.9-27.3,48.7-30.7
					c19.8-3.4,39.7,1.1,56.1,12.7c16.4,11.6,27.3,28.9,30.7,48.7c3.4,19.8-1.1,39.7-12.7,56.1c-11.6,16.4-28.9,27.3-48.7,30.7
					C1980,985.9,1975.7,986.3,1971.5,986.3z M1971.8,846.1c-3.7,0-7.4,0.3-11.1,1c-17.1,2.9-32.1,12.4-42.1,26.5
					c-20.7,29.3-13.8,69.9,15.5,90.7c14.2,10,31.4,13.9,48.5,11c17.1-2.9,32.1-12.4,42.1-26.5c10-14.2,13.9-31.4,11-48.5
					c-2.9-17.1-12.4-32.1-26.5-42.1l0,0C1998.1,850.2,1985.1,846.1,1971.8,846.1z"/>
				<path class="st10" d="M1970.3,1106.7c-5.1,0-10.3-0.2-15.5-0.6c-52.1-4.1-99.4-28.1-133.4-67.8c-30.6-35.7-47-80.2-47-126.8
					c0-5.1,0.2-10.3,0.6-15.5c4.1-52.1,28.1-99.4,67.8-133.4c39.7-33.9,90.2-50.4,142.3-46.3c52.1,4.1,99.4,28.1,133.4,67.8
					c9.1,10.6,17,22.1,23.6,34.3l-8.9,4.8c-6.2-11.5-13.8-22.5-22.4-32.5c-32.2-37.6-77.1-60.5-126.5-64.3
					c-49.4-3.8-97.3,11.8-134.9,44c-37.6,32.2-60.5,77.1-64.3,126.5c-0.4,4.9-0.6,9.8-0.6,14.7c0,44.1,15.5,86.3,44.5,120.2
					c32.2,37.6,77.1,60.5,126.5,64.3c49.4,3.8,97.3-11.8,134.9-44c25.5-21.9,44.7-50.2,55.3-81.9l9.6,3.2
					c-11.2,33.4-31.3,63.3-58.3,86.3C2061.3,1090.3,2016.8,1106.7,1970.3,1106.7z"/>
			</g>
		</g>
		<g>
			<g>
				<path class="st7" d="M2748,1241.3c-0.6,0-1.2-0.2-1.7-0.5c-1.6-0.9-2.1-3-1.2-4.6c2.3-3.8,4.4-7.7,6.4-11.6
					c0.9-1.7,2.9-2.3,4.5-1.4c1.7,0.9,2.3,2.9,1.4,4.5c-2.1,4-4.3,8-6.6,11.9C2750.3,1240.7,2749.1,1241.3,2748,1241.3z"/>
				<path class="st7" d="M2530.7,1354c-0.1,0-0.2,0-0.3,0c-9.1-0.7-18.3-2-27.3-3.8c-1.8-0.4-3-2.1-2.7-4c0.4-1.8,2.1-3,4-2.7
					c8.7,1.7,17.6,2.9,26.5,3.6c1.9,0.1,3.2,1.8,3.1,3.6C2533.9,1352.7,2532.4,1354,2530.7,1354z M2574.7,1353.3
					c-1.7,0-3.1-1.3-3.3-3c-0.2-1.8,1.1-3.5,3-3.7c8.9-1,17.7-2.5,26.4-4.5c1.8-0.4,3.6,0.7,4,2.5c0.4,1.8-0.7,3.6-2.5,4
					c-8.9,2.1-18,3.6-27.1,4.7C2575,1353.3,2574.9,1353.3,2574.7,1353.3z M2461.6,1337.7c-0.4,0-0.9-0.1-1.3-0.2
					c-8.5-3.4-16.8-7.4-24.8-11.8c-1.6-0.9-2.2-2.9-1.3-4.6c0.9-1.6,2.9-2.2,4.6-1.3c7.8,4.3,15.9,8.2,24.1,11.5
					c1.7,0.7,2.6,2.7,1.9,4.4C2464.2,1336.9,2462.9,1337.7,2461.6,1337.7z M2643.2,1334.7c-1.3,0-2.5-0.7-3.1-2
					c-0.8-1.7,0-3.7,1.7-4.4c8.1-3.6,16.1-7.8,23.7-12.3c1.6-1,3.7-0.4,4.6,1.2c1,1.6,0.4,3.7-1.2,4.6c-7.9,4.7-16.1,9-24.4,12.7
					C2644.2,1334.6,2643.7,1334.7,2643.2,1334.7z M2400.8,1301.2c-0.8,0-1.5-0.3-2.2-0.8c-7-5.8-13.7-12.2-20.1-18.8
					c-1.3-1.4-1.2-3.5,0.1-4.8c1.4-1.3,3.5-1.2,4.8,0.1c6.1,6.5,12.7,12.6,19.5,18.3c1.4,1.2,1.6,3.3,0.4,4.7
					C2402.7,1300.7,2401.8,1301.2,2400.8,1301.2z M2702.8,1296.1c-0.9,0-1.8-0.4-2.5-1.1c-1.2-1.4-1.1-3.5,0.3-4.8l2-1.8
					c5.9-5.4,11.6-11.2,16.9-17.1c1.2-1.4,3.4-1.5,4.8-0.3c1.4,1.2,1.5,3.4,0.3,4.8c-5.5,6.1-11.3,12.1-17.4,17.6l-2,1.8
					C2704.4,1295.8,2703.6,1296.1,2702.8,1296.1z M2353.9,1247.9c-1.1,0-2.2-0.5-2.8-1.6c-4.9-7.7-9.5-15.8-13.5-24
					c-0.8-1.7-0.1-3.7,1.6-4.5c1.7-0.8,3.7-0.1,4.5,1.6c3.9,8,8.3,15.8,13.1,23.3c1,1.6,0.5,3.6-1,4.6
					C2355.1,1247.8,2354.5,1247.9,2353.9,1247.9z"/>
				<path class="st7" d="M2325.2,1182.8c-1.5,0-2.9-1-3.3-2.5c-1.2-4.4-2.2-8.9-3.1-13.3c-0.4-1.8,0.8-3.6,2.6-4
					c1.8-0.4,3.6,0.8,4,2.6c0.9,4.3,1.9,8.7,3,12.9c0.5,1.8-0.6,3.6-2.4,4.1C2325.8,1182.8,2325.5,1182.8,2325.2,1182.8z"/>
			</g>
			<g>
				<path class="st7" d="M2353,1000.1c-0.6,0-1.2-0.2-1.8-0.5c-1.6-1-2-3.1-1.1-4.6c2.4-3.8,5-7.7,7.6-11.3c1.1-1.5,3.2-1.9,4.7-0.8
					c1.5,1.1,1.9,3.2,0.8,4.7c-2.6,3.6-5,7.3-7.4,11C2355.2,999.6,2354.1,1000.1,2353,1000.1z"/>
				<path class="st7" d="M2761.9,1032.9c-1.3,0-2.6-0.8-3.1-2.1c-3.4-8-7.3-16-11.7-23.6c-0.9-1.6-0.4-3.7,1.3-4.6
					c1.6-0.9,3.7-0.4,4.6,1.3c4.5,7.8,8.5,16,12,24.3c0.7,1.7-0.1,3.7-1.8,4.4C2762.8,1032.8,2762.3,1032.9,2761.9,1032.9z
					 M2725.2,973.5c-1,0-1.9-0.4-2.6-1.2c-1.7-2-3.5-4-5.3-6c-4.1-4.5-8.4-8.9-12.9-13c-1.4-1.3-1.4-3.4-0.2-4.8
					c1.3-1.4,3.4-1.4,4.8-0.2c4.6,4.3,9,8.8,13.3,13.4c1.9,2,3.7,4.1,5.4,6.2c1.2,1.4,1,3.5-0.4,4.7
					C2726.7,973.2,2725.9,973.5,2725.2,973.5z M2388.9,956.2c-0.9,0-1.8-0.3-2.4-1c-1.3-1.3-1.2-3.5,0.1-4.8
					c1.4-1.3,2.7-2.6,4.1-3.9c5.3-4.8,10.8-9.4,16.5-13.7c1.5-1.1,3.6-0.8,4.7,0.6c1.1,1.5,0.8,3.6-0.6,4.7
					c-5.5,4.2-10.9,8.7-16,13.3c-1.4,1.2-2.7,2.5-4,3.8C2390.5,955.9,2389.7,956.2,2388.9,956.2z M2672.5,927.7
					c-0.6,0-1.2-0.2-1.8-0.5c-7.4-4.7-15.1-9-23-12.7c-1.7-0.8-2.4-2.8-1.6-4.5c0.8-1.7,2.8-2.4,4.5-1.6c8.1,3.9,16.1,8.3,23.7,13.1
					c1.6,1,2,3.1,1,4.6C2674.7,927.1,2673.6,927.7,2672.5,927.7z M2446,916c-1.2,0-2.4-0.7-3-1.9c-0.8-1.7-0.1-3.7,1.5-4.5
					c8-4,16.4-7.6,24.9-10.6c1.8-0.6,3.7,0.3,4.3,2c0.6,1.7-0.3,3.7-2,4.3c-8.2,3-16.4,6.4-24.2,10.3
					C2447,915.9,2446.5,916,2446,916z M2608.5,899.7c-0.3,0-0.6,0-0.9-0.1c-8.4-2.2-17.1-4-25.8-5.3c-1.8-0.3-3.1-2-2.8-3.8
					c0.3-1.8,2-3.2,3.8-2.8c8.9,1.3,17.8,3.1,26.5,5.4c1.8,0.5,2.9,2.3,2.4,4.1C2611.3,898.7,2610,899.7,2608.5,899.7z
					 M2512.5,894.8c-1.6,0-3.1-1.2-3.3-2.8c-0.3-1.8,1-3.6,2.8-3.8c8.9-1.4,17.9-2.3,26.9-2.7c1.9,0,3.4,1.4,3.5,3.2
					c0.1,1.9-1.4,3.4-3.2,3.5c-8.8,0.4-17.6,1.2-26.2,2.6C2512.9,894.8,2512.7,894.8,2512.5,894.8z"/>
				<path class="st7" d="M2777.5,1087.5c-1.6,0-3.1-1.2-3.3-2.8c-0.7-4.3-1.5-8.7-2.4-13c-0.4-1.8,0.8-3.6,2.6-4
					c1.8-0.4,3.6,0.8,4,2.6c1,4.4,1.8,8.9,2.5,13.4c0.3,1.8-1,3.6-2.8,3.8C2777.8,1087.5,2777.7,1087.5,2777.5,1087.5z"/>
			</g>
			<g>
				<path class="st7" d="M2726.6,1114.8c0.1-1.2-0.6-2.3-1.7-2.8l-31-13.5c-2.4-15.6-7.3-30.9-14.8-45.4l17.1-29.1
					c0.6-1,0.5-2.3-0.3-3.2l-26.4-30.8c-0.8-0.9-2-1.2-3.1-0.8l-31.4,12.4c-13.1-9.6-27.5-16.8-42.5-21.6l-8.5-32.7
					c-0.3-1.1-1.3-2-2.5-2.1l-40.4-3.1c-1.2-0.1-2.3,0.6-2.8,1.7l-13.5,31c-15.6,2.4-30.9,7.3-45.4,14.8l-29.1-17.1
					c-1-0.6-2.3-0.5-3.2,0.3l-30.8,26.4c-0.9,0.8-1.2,2-0.8,3.1l12.4,31.4c-9.6,13.1-16.8,27.5-21.6,42.5l-32.7,8.5
					c-1.1,0.3-2,1.3-2.1,2.5l-3.1,40.4c-0.1,1.2,0.6,2.3,1.7,2.8l31,13.5c2.4,15.6,7.3,30.9,14.8,45.4l-17.1,29.1
					c-0.6,1-0.5,2.3,0.3,3.2l26.4,30.8c0.8,0.9,2,1.2,3.1,0.8l31.4-12.4c13.1,9.6,27.5,16.8,42.5,21.6l8.5,32.7
					c0.3,1.1,1.3,2,2.5,2.1l40.4,3.1c1.2,0.1,2.3-0.6,2.8-1.7l13.5-31c15.6-2.4,30.9-7.3,45.4-14.8l29.1,17.1c1,0.6,2.3,0.5,3.2-0.3
					l30.8-26.4c0.9-0.8,1.2-2,0.8-3.1l-12.4-31.4c9.6-13.1,16.8-27.5,21.6-42.5l32.7-8.5c1.1-0.3,2-1.3,2.1-2.5L2726.6,1114.8z"/>
				<path class="st10" d="M2547.4,1162.2c-8.4,0-16.6-2.6-23.6-7.6c-18.5-13.1-22.9-38.7-9.8-57.2c6.3-9,15.8-14.9,26.6-16.7
					c10.8-1.9,21.7,0.6,30.6,7c9,6.3,14.9,15.8,16.7,26.6c1.9,10.8-0.6,21.7-7,30.6c-6.3,9-15.8,14.9-26.6,16.7
					C2552.1,1162,2549.7,1162.2,2547.4,1162.2z M2547.5,1090.2c-9.7,0-19.3,4.5-25.3,13.1c-9.9,13.9-6.5,33.3,7.4,43.1
					c6.7,4.8,15,6.6,23.1,5.2c8.2-1.4,15.3-5.9,20-12.6c4.8-6.7,6.6-15,5.2-23.1c-1.4-8.2-5.9-15.3-12.6-20l0,0
					C2560,1092.1,2553.7,1090.2,2547.5,1090.2z"/>
				<path class="st10" d="M2546.8,1224.1c-2.7,0-5.4-0.1-8.2-0.3c-27.4-2.1-52.3-14.8-70.2-35.7c-16.6-19.4-24.7-43.1-24.7-66.8
					c0-29,12.2-57.9,36-78.2c43.1-36.9,108.2-31.8,145.1,11.3c0.3,0.3,0.6,0.7,0.9,1c4,4.8,7.6,9.9,10.6,15.3c0,0,0,0,0,0.1
					c0,0.1,0.1,0.2,0.1,0.2c0.1,0.1,0.2,0.3,0.2,0.4c0,0.1,0.1,0.2,0.1,0.2c0.1,0.2,0.3,0.5,0.4,0.7l-8.9,4.8
					c-3.1-5.8-6.9-11.3-11.2-16.3l0,0c-23.5-27.5-59.8-37.8-92.8-29.7c-13.6,3.3-26.6,9.8-38,19.5c-21.4,18.3-32.4,44.4-32.4,70.6
					c0,21.3,7.3,42.8,22.2,60.3c33.3,38.9,91.9,43.5,130.8,10.2c12.8-10.9,22.3-25.1,27.6-41l9.6,3.2c-5.9,17.6-16.5,33.3-30.7,45.4
					C2594.7,1215.4,2571.3,1224.1,2546.8,1224.1z"/>
			</g>
		</g>
	</g>
	<g>
		<g>
			<linearGradient id="SVGID_5_" gradientUnits="userSpaceOnUse" x1="3668.749" y1="742.1304" x2="3204.1814" y2="1196.5988">
				<stop  offset="0" style="stop-color:#FF928E"/>
				<stop  offset="1" style="stop-color:#FE7062"/>
			</linearGradient>
			<path class="st11" d="M1891.2,1585.3c8.3-7.8,19.5-11.6,30.9-10.6c121.2,10.9,347.3-47.5,495-198.7c10.3-10.5,29-4.6,40.7,4.2
				c164.3,122.8,436.7,148.2,531.3,153.4c19.6,1.1,35.4,16.2,37.5,35.7c86,830.5-454.8,1131.5-566.9,1184.6
				c-12.3,5.8-26.7,5-38.2-2.2c-559-348.2-535.1-801-542.8-1136.5C1878.4,1604,1882.9,1593,1891.2,1585.3z"/>
			<path class="st12" d="M2444.5,2693.7c-2.5,0-5-0.7-7.2-2.1c-214.3-137-354-300.8-427-500.7c-65.2-178.5-68.4-360.4-71.2-520.8
				l-0.4-21.4c-0.1-3.6,1.3-6.9,3.8-9.5c2.5-2.6,5.9-4,9.5-4h0c132.7,0,331.9-58.6,478-189.5c4.5-4,11.1-4.5,16.2-1.2
				c160.5,106.5,389.5,137.5,511.7,146.5c6.5,0.5,11.6,5.5,12.2,12.1c28.4,324.1-39,598.1-200.3,814.5
				c-120.5,161.6-263.4,245.8-319.2,274.5l0,0C2448.6,2693.2,2446.6,2693.7,2444.5,2693.7z M2448,2687.4l1.2,2.4L2448,2687.4
				c55.5-28.5,197.5-112.2,317.4-272.9c160.5-215.3,227.6-488.1,199.3-810.8c-0.3-3.8-3.4-6.8-7.2-7.1
				c-122.7-9-352.8-40.2-514.3-147.4c-3-2-6.9-1.7-9.5,0.7c-147.2,131.9-347.9,190.9-481.5,190.9h0c-2.3,0-4.3,0.8-5.7,2.4
				c-1.5,1.5-2.3,3.5-2.2,5.6l0.4,21.4c2.8,160,6,341.3,70.9,519c72.6,198.7,211.6,361.6,424.8,498
				C2442.6,2688.5,2445.6,2688.7,2448,2687.4z"/>
		</g>
		<g>
			<path class="st12" d="M2639.9,1898.8h-25.3c-12.6,0-22.7-10.2-22.7-22.7v-86.4c0-30.9-25.1-56-56-56h-156.6
				c-30.9,0-56,25.1-56,56v86.4c0,12.6-10.2,22.7-22.7,22.7h-25.3c-12.6,0-22.7-10.2-22.7-22.7v-86.4c0-70,56.7-126.7,126.7-126.7
				h156.6c70,0,126.7,56.7,126.7,126.7v86.4C2662.6,1888.6,2652.4,1898.8,2639.9,1898.8z"/>
			<path class="st12" d="M2671.2,1919.2h-427.3c-26.2,0-47.4,21.2-47.4,47.4v327.9c0,26.2,21.2,47.4,47.4,47.4h427.3
				c26.2,0,47.4-21.2,47.4-47.4v-327.9C2718.6,1940.4,2697.4,1919.2,2671.2,1919.2z M2518.7,2236.1c2.7,11-5.7,21.7-17.1,21.7h-88.1
				c-11.4,0-19.7-10.6-17.1-21.7l20.6-85.6c-24.3-14.5-40.1-41.6-38.5-72.3c2.1-39.7,34.3-72.3,74-74.7c46-2.9,84.3,33.6,84.3,79
				c0,28.9-15.5,54.2-38.6,68L2518.7,2236.1z"/>
		</g>
	</g>
	<g>
		
			<linearGradient id="SVGID_6_" gradientUnits="userSpaceOnUse" x1="1693.7308" y1="1879.6465" x2="1819.1893" y2="2010.6809" gradientTransform="matrix(-1 0 0 1 2478.4575 0)">
			<stop  offset="0" style="stop-color:#09005D"/>
			<stop  offset="1" style="stop-color:#1A0F91"/>
		</linearGradient>
		<path class="st13" d="M819.7,1812c0,0,34.6,1.8,38.9,73c0,0-80.2,71.9-188.6,89.1c-8.1,1.3,11.4-55.6,14.3-63.3
			C698.2,1874.2,742.1,1850.6,819.7,1812z"/>
		<path class="st4" d="M1209.4,1728.3h-73c0,0-224.1-247.5-371.2-272.5c0,0-102.3,130.6,5.5,374.7c8.7,19.6,32.9,28.4,51,16.8
			c5.4-3.5,9.3-8.1,11.7-13.9l-8.7-208.4c0,0,191.2,167.2,224.4,199.5C1082.4,1856.7,1251.3,1837,1209.4,1728.3z"/>
		
			<linearGradient id="SVGID_7_" gradientUnits="userSpaceOnUse" x1="1860.1589" y1="2208.543" x2="2097.468" y2="2382.7148" gradientTransform="matrix(-1 0 0 1 2478.4575 0)">
			<stop  offset="0" style="stop-color:#09005D"/>
			<stop  offset="1" style="stop-color:#1A0F91"/>
		</linearGradient>
		<path class="st14" d="M503.4,2248c30.6-26.8,79.4-56.9,149.8-65.5L677,2197c0,0-15.2,22.4-42.9,46c-25.5,14.8-64.8,34.9-97.5,39.2
			C504.9,2286.5,500.2,2267.3,503.4,2248z"/>
		<path class="st7" d="M684.2,1910.8c18.9,6.1,27.1,32.8,75,15.1c46.3-17.1,80.7-39.1,98.4-51.8c0.4,3.4,0.7,7,1,10.9
			c0,0-84.6,80.5-193,97.6c-8.1,1.3-14.6-6.8-11.7-14.5C659.1,1954.3,668.6,1933.3,684.2,1910.8z"/>
		<path class="st7" d="M480.3,2270.9c6-6.9,13.7-14.7,23.1-22.9c-3.2,19.3,1.5,38.5,33.2,34.3c32.6-4.3,72-24.4,97.5-39.2
			c-31.9,27.2-80.6,56.2-141.9,54.5C478.5,2297.2,471.3,2281.1,480.3,2270.9z"/>
		<path class="st4" d="M1206.8,1781.1l-342,3.7c0,0-195.3,161.6-230.7,408c0,0-5.9,18.1,29.4,21.2c0,0,118.1-77.1,195.1-213.5
			c94.4-167.2,281.4-91.9,281.4-91.9c89.9,19.8,161.4,12.5,213.7-68.1L1206.8,1781.1z"/>
		
			<linearGradient id="SVGID_8_" gradientUnits="userSpaceOnUse" x1="1476.7593" y1="1564.8405" x2="1315.6505" y2="1756.4292" gradientTransform="matrix(-1 0 0 1 2478.4575 0)">
			<stop  offset="0" style="stop-color:#FEBBBA"/>
			<stop  offset="1" style="stop-color:#FF928E"/>
		</linearGradient>
		<path class="st15" d="M1198.7,1505.6c0,0-36.8,184.5-217.2,257.5l-64.2-7.6l-15.1,24.1l150.5,4.8c0,0,128.7-51,196.8-189.8
			C1251.8,1590.1,1289.3,1512.6,1198.7,1505.6z"/>
		<linearGradient id="SVGID_9_" gradientUnits="userSpaceOnUse" x1="1800.5353" y1="1093.2788" x2="1315.7433" y2="1598.2697">
			<stop  offset="0" style="stop-color:#FF928E"/>
			<stop  offset="1" style="stop-color:#FE7062"/>
		</linearGradient>
		<path class="st16" d="M1179,1778.1c0,0,41.9-113.8,50.9-224.4c0,0-30.6-26.3-49.8-37.7c-6.2-3.7-8.5-11.5-5.4-17.9
			c14.1-29.2,99.2-143.6,105.6-145.2c34.7-8.6,176.8-76.2,276.9,60.7c43,58.8-8.5,239.7-203.4,427
			C1291,1850.7,1232.3,1832.7,1179,1778.1z"/>
		
			<linearGradient id="SVGID_10_" gradientUnits="userSpaceOnUse" x1="1288.8999" y1="1739.1638" x2="1610.9313" y2="1298.6074" gradientTransform="matrix(-1 0 0 1 2478.4575 0)">
			<stop  offset="0" style="stop-color:#FEBBBA"/>
			<stop  offset="1" style="stop-color:#FF928E"/>
		</linearGradient>
		<path class="st17" d="M1340.3,1578.6c0,0-116.3,137.7-265,157.9c0,0-38.4-35-67-22.5c-28.6,12.5-67.8,67.7-67.8,67.7h190.9
			c0,0,180.5-6.4,270.8-115.8C1394.9,1627.5,1373.2,1604.7,1340.3,1578.6z"/>
		
			<linearGradient id="SVGID_11_" gradientUnits="userSpaceOnUse" x1="1091.9044" y1="1374.0756" x2="1103.7662" y2="1267.3191" gradientTransform="matrix(-1 0 0 1 2478.4575 0)">
			<stop  offset="0" style="stop-color:#FEBBBA"/>
			<stop  offset="1" style="stop-color:#FF928E"/>
		</linearGradient>
		<path class="st18" d="M1408.1,1256.2l25.5,84.9c1.2,3.9-0.3,8.1-3.6,10.4c-12.3,8.4-44.3,25.1-88.2,8.9c-5-1.9-8.5-6.5-8.9-11.9
			l-6-73.9L1408.1,1256.2z"/>
		<g>
			
				<linearGradient id="SVGID_12_" gradientUnits="userSpaceOnUse" x1="1155.1716" y1="1280.9521" x2="1102.8887" y2="1108.5105" gradientTransform="matrix(-1 0 0 1 2478.4575 0)">
				<stop  offset="0" style="stop-color:#FEBBBA"/>
				<stop  offset="1" style="stop-color:#FF928E"/>
			</linearGradient>
			<path class="st19" d="M1259.1,1187.5c0,0,12.5,88,46.3,115.1c33.8,27.1,99.7,6.7,121.9-59.6l-44.3-113.4L1259.1,1187.5z"/>
			
				<linearGradient id="SVGID_13_" gradientUnits="userSpaceOnUse" x1="1107.9917" y1="964.3203" x2="1156.601" y2="1241.5731" gradientTransform="matrix(-1 0 0 1 2478.4575 0)">
				<stop  offset="0" style="stop-color:#09005D"/>
				<stop  offset="1" style="stop-color:#1A0F91"/>
			</linearGradient>
			<path class="st20" d="M1388,1202.9c-2.6,0.8-5.3-0.8-5.7-3.5c-1.2-8.1-4.3-24.2-10.4-35.1c0,0,3.2-11.5-29.2,5.9
				c-32.4,17.4-81.1,43.1-109.7,27.8c-27.9-14.9-56.2-89.7,17.6-75.9c2.8,0.5,5.4-1.7,5.2-4.6c-0.9-12.3,0.3-40.6,29-49.7
				c26.8-8.5,41.5,3.6,47.6,10.9c1.8,2.2,5.1,2.1,6.8-0.1c8-10.5,29.9-32.8,62-18.7c26.5,11.7,30.6,28,30.1,38.1
				c-0.1,3.3,3.2,5.5,6.2,4.1c8.1-3.7,21.1-5.7,33.6,10c17.3,21.6-7.4,40.4-14.8,45.3c-1.2,0.8-2,2.1-2,3.6
				c-0.1,11.2-1.8,60.3-26.4,88c-2.1,2.4-6.1,1.7-7.3-1.3l-18.9-45.1c-0.9-2.1-3.2-3.2-5.4-2.5L1388,1202.9z"/>
			
				<linearGradient id="SVGID_14_" gradientUnits="userSpaceOnUse" x1="1101.0172" y1="1297.3715" x2="1048.7341" y2="1124.9296" gradientTransform="matrix(-1 0 0 1 2478.4575 0)">
				<stop  offset="0" style="stop-color:#FEBBBA"/>
				<stop  offset="1" style="stop-color:#FF928E"/>
			</linearGradient>
			<path class="st21" d="M1387.6,1212c0,0,11.6-47.1,29.1-31.8c17.6,15.3-4.6,48.9-24.7,55.3L1387.6,1212z"/>
		</g>
		
			<linearGradient id="SVGID_15_" gradientUnits="userSpaceOnUse" x1="1528.3632" y1="1639.4886" x2="1773.4126" y2="1639.4886" gradientTransform="matrix(-1 0 0 1 2478.4575 0)">
			<stop  offset="0" style="stop-color:#09005D"/>
			<stop  offset="1" style="stop-color:#1A0F91"/>
		</linearGradient>
		<path class="st22" d="M950.1,1792.4l-85.7-285.9c-3.5-11.7-13.9-19.9-26-20.8l-115.8-7.9c-11.8-0.8-20.5,10.7-16.6,21.8l95.8,273
			c3.1,8.8,11,15,20.3,15.9l114,12.7L950.1,1792.4z"/>
		<path class="st7" d="M792,1603.4c6.4,12.9,17.5,20.5,24.7,16.9c7.2-3.6,7.9-17,1.5-29.9c-6.4-12.9-17.5-20.5-24.7-16.9
			C786.3,1577.1,785.6,1590.4,792,1603.4z"/>
		
			<linearGradient id="SVGID_16_" gradientUnits="userSpaceOnUse" x1="1558.1051" y1="1746.6063" x2="1362.162" y2="1800.3092" gradientTransform="matrix(-1 0 0 1 2478.4575 0)">
			<stop  offset="0" style="stop-color:#09005D"/>
			<stop  offset="1" style="stop-color:#1A0F91"/>
		</linearGradient>
		<path class="st23" d="M936.1,1801.2c0.2,0,0.4,0,0.6,0l242.9-12.3c6-0.3,10.6-5.4,10.3-11.4c-0.3-6-5.4-10.7-11.4-10.3
			l-242.9,12.3c-6,0.3-10.6,5.4-10.3,11.4C925.5,1796.7,930.3,1801.2,936.1,1801.2z"/>
		<linearGradient id="SVGID_17_" gradientUnits="userSpaceOnUse" x1="1283.0676" y1="821.8323" x2="1207.3228" y2="1988.3004">
			<stop  offset="0" style="stop-color:#E1473D"/>
			<stop  offset="1" style="stop-color:#E9605A"/>
		</linearGradient>
		<path class="st24" d="M1229.8,1555.4c-0.9,0-1.7-0.7-1.7-1.7c-0.2-51.3,19.6-119.1,19.8-119.8c0.3-0.9,1.2-1.4,2.1-1.1
			c0.9,0.3,1.4,1.2,1.1,2.1c-0.2,0.7-19.8,68.1-19.6,118.8C1231.5,1554.6,1230.8,1555.4,1229.8,1555.4L1229.8,1555.4z"/>
		<linearGradient id="SVGID_18_" gradientUnits="userSpaceOnUse" x1="1420.9672" y1="830.7864" x2="1345.2223" y2="1997.2546">
			<stop  offset="0" style="stop-color:#E1473D"/>
			<stop  offset="1" style="stop-color:#E9605A"/>
		</linearGradient>
		<path class="st25" d="M1340.3,1580.3c-0.4,0-0.7-0.1-1-0.4c-0.7-0.6-0.9-1.6-0.3-2.4c0.5-0.7,53.3-67.8,71.4-113.6
			c0.3-0.9,1.3-1.3,2.2-0.9c0.9,0.3,1.3,1.3,0.9,2.2c-18.3,46.2-71.3,113.7-71.9,114.4C1341.3,1580.1,1340.8,1580.3,1340.3,1580.3z"
			/>
		<linearGradient id="SVGID_19_" gradientUnits="userSpaceOnUse" x1="1523.5696" y1="837.449" x2="1447.8246" y2="2003.9169">
			<stop  offset="0" style="stop-color:#E1473D"/>
			<stop  offset="1" style="stop-color:#E9605A"/>
		</linearGradient>
		<path class="st26" d="M1415.1,1683.5l-9.6-13.6c-0.5-0.8-0.4-1.8,0.4-2.3c0.8-0.5,1.8-0.4,2.3,0.4l8,11.4
			c74.9-32.8,121.3-122.5,121.7-123.4c0.4-0.8,1.4-1.2,2.3-0.7c0.8,0.4,1.2,1.4,0.7,2.3c-0.5,0.9-47.9,92.6-124.7,125.5
			L1415.1,1683.5z"/>
	</g>
</g>
</svg>
