<?xml version="1.0" encoding="utf-8"?>
<!-- Generator: Adobe Illustrator 23.0.0, SVG Export Plug-In . SVG Version: 6.00 Build 0)  -->
<svg version="1.1" id="Layer_1" xmlns="http://www.w3.org/2000/svg" xmlns:xlink="http://www.w3.org/1999/xlink" x="0px" y="0px"
	 viewBox="0 0 1920 491" style="enable-background:new 0 0 1920 491;" xml:space="preserve">
<style type="text/css">
	.st0{fill:#292663;}
</style>
<path class="st0" d="M1920,4.1c-3.4-0.9-6.9-1.7-10.5-2.3c-19.7-3.4-39.9-1.9-58.9,4.3c-19,6.2-36.2,16.9-50.1,31.3
	c-13.9,14.3-24.1,31.9-29.7,51.1c-5.6,19.2-6.4,39.4-2.4,59c-7.6-0.5-15.3-0.2-22.8,1.1c3.9-7.7,5.8-16.4,5.4-25.1s-3-17.1-7.7-24.5
	c-4.6-7.4-11.1-13.4-18.7-17.5c-7.7-4.1-16.2-6.2-24.9-6c-8.7,0.2-17.2,2.6-24.6,7.1c-7.5,4.4-13.7,10.7-18,18.3
	c-4.3,7.5-6.6,16.1-6.6,24.8c0,8.7,2.2,17.2,6.5,24.8c-9.5-3.7-19.8-4.7-29.9-3.1s-19.5,5.9-27.3,12.4c-7.8,6.5-13.8,15-17.3,24.5
	c-3.5,9.6-4.4,19.9-2.5,29.9c-1.1-0.3-2.3-0.5-3.4-0.7c-14.4-2.5-29.3-1.3-43.1,3.4c-13.9,4.7-26.3,12.9-36.3,23.6
	c-16.6-4.4-34.2-2.7-49.7,4.7c-3.9,1.9-7.7,4.1-11.2,6.6c-0.4-1.1-0.9-2.2-1.4-3.2c-3.8-8-9.4-15.1-16.2-20.7
	c-6.8-5.6-14.8-9.7-23.4-11.9c-8.6-2.2-17.5-2.5-26.3-0.9c-8.7,1.6-17,5.1-24.2,10.3s-13.2,11.8-17.6,19.5c-4.4,7.7-7,16.3-7.7,25.1
	c-0.7,8.8,0.5,17.7,3.6,26c3.1,8.3,8,15.9,14.3,22.1c-9.3-3.4-19.2-4.7-29.1-3.9c-9.9,0.8-19.4,3.7-28.1,8.5
	c-8.6,4.8-16.1,11.5-22,19.4c-5.8,8-9.9,17.1-11.9,26.8c-12.5-7.7-26.7-12.1-41.3-12.9c-14.6-0.8-29.2,2.1-42.4,8.4
	c-1.1,0.5-2.1,1-3.1,1.6c-1-10.1-4.6-19.8-10.6-28.1c-5.9-8.3-14-14.8-23.3-18.9c-9.3-4.1-19.6-5.7-29.7-4.5s-19.8,5-27.9,11.1
	c2-8.4,1.8-17.3-0.5-25.6c-2.4-8.3-6.9-15.9-13.1-22c-6.2-6.1-13.8-10.5-22.2-12.7c-8.4-2.2-17.2-2.3-25.6-0.1
	c-8.4,2.2-16.1,6.5-22.3,12.5c-6.2,6-10.8,13.6-13.3,21.9c-2.5,8.3-2.7,17.1-0.8,25.6c2,8.5,6.1,16.3,12,22.6
	c-7.6,0.9-15.1,2.6-22.3,5.2c-2.3-31.1-16.3-60.1-39.2-81.2c-22.9-21.1-53-32.7-84.2-32.5c-31.2,0.2-61.1,12.3-83.6,33.8
	c-22.6,21.5-36.1,50.7-37.9,81.8c-3.3-6.5-8.1-12.2-13.8-16.7c-5.7-4.5-12.4-7.8-19.5-9.5c-7.1-1.7-14.5-1.9-21.7-0.5
	c-7.2,1.4-14,4.3-20,8.5c-6,4.2-11,9.7-14.6,16c-3.7,6.3-5.9,13.4-6.6,20.7s0.2,14.6,2.5,21.6c2.4,6.9,6.2,13.2,11.2,18.6
	c-7.7-3.1-16-4.5-24.3-4.1c-8.3,0.4-16.4,2.6-23.8,6.4c-7.4,3.8-13.9,9.2-19,15.8c-5.1,6.6-8.8,14.1-10.7,22.2
	c-10.3-6.8-22.1-10.9-34.4-12c-12.3-1.1-24.6,1-35.9,5.9c-0.9,0.4-1.8,0.8-2.6,1.2c-0.5-8.5-3.3-16.8-8.1-23.9
	c-4.8-7.1-11.4-12.8-19.1-16.5c-7.7-3.7-16.3-5.3-24.8-4.6c-8.5,0.7-16.7,3.7-23.7,8.6c1.9-7,2-14.4,0.3-21.5
	c-1.8-7.1-5.4-13.6-10.4-18.9c-5-5.3-11.3-9.2-18.3-11.3c-7-2.1-14.4-2.4-21.5-0.8c-7.1,1.6-13.7,5-19.1,9.9
	c-5.4,4.9-9.4,11.1-11.7,18c-2.3,6.9-2.7,14.3-1.3,21.5s4.7,13.8,9.4,19.3c-6.4,0.6-12.7,1.8-18.9,3.8
	c-1.1-26.6-12.6-51.8-31.9-70.2c-19.3-18.4-45-28.6-71.7-28.5c-26.7,0.1-52.3,10.6-71.4,29.2S109,407,108.1,433.7
	c-9.6-8-21.4-13.1-33.8-14.6c-12.4-1.6-25,0.4-36.4,5.7c-11.3,5.3-20.9,13.8-27.6,24.3C3.6,459.7,0,472,0,484.5c0,2,0.1,4.1,0.3,6
	H1920V4.1z"/>
</svg>
