<?xml version="1.0" encoding="utf-8"?>
<!-- Generator: Adobe Illustrator 23.0.0, SVG Export Plug-In . SVG Version: 6.00 Build 0)  -->
<svg version="1.1" id="Layer_1" xmlns="http://www.w3.org/2000/svg" xmlns:xlink="http://www.w3.org/1999/xlink" x="0px" y="0px"
	 viewBox="0 0 1920 546" style="enable-background:new 0 0 1920 546;" xml:space="preserve">
<style type="text/css">
	.st0{fill:#292663;}
</style>
<path class="st0" d="M0,545.8h1920V11.7c-23.8-10.2-49.9-13.8-75.6-10.5c-25.7,3.3-50.1,13.3-70.6,29.1
	c-20.5,15.8-36.4,36.8-46.2,60.8c-9.7,24-12.8,50.2-9.1,75.8c-9-1.1-18.1-1.2-27.2-0.3c5.2-8.9,8-19,8.1-29.4
	c0.1-10.3-2.4-20.5-7.4-29.5c-5-9-12.2-16.6-21-22c-8.8-5.4-18.8-8.4-29.2-8.8c-10.3-0.4-20.5,1.9-29.7,6.7
	c-9.2,4.8-16.9,11.8-22.5,20.5c-5.6,8.7-8.9,18.6-9.5,28.9c-0.6,10.3,1.4,20.6,6,29.9c-11-5-23.2-7-35.2-5.7
	c-12,1.3-23.5,5.7-33.3,12.9c-9.7,7.2-17.4,16.8-22.2,27.9c-4.8,11.1-6.5,23.3-5.1,35.3c-1.3-0.4-2.7-0.7-4-1
	c-17-3.9-34.6-3.6-51.4,1.1s-32.1,13.5-44.6,25.6c-19.4-6.3-40.4-5.6-59.3,2.2c-4.8,2-9.4,4.4-13.7,7.1c-0.5-1.3-0.9-2.6-1.5-3.8
	c-4-9.8-10.1-18.5-17.8-25.7c-7.7-7.2-16.9-12.5-27-15.7c-10-3.2-20.7-4.2-31.1-2.9c-10.5,1.3-20.5,4.9-29.4,10.5
	c-8.9,5.6-16.5,13.1-22.2,22c-5.7,8.9-9.4,18.8-10.9,29.3c-1.4,10.4-0.6,21.1,2.5,31.1c3.1,10.1,8.4,19.3,15.4,27.2
	c-10.8-4.6-22.5-6.9-34.3-6.6c-11.8,0.3-23.3,3.1-33.9,8.2c-10.6,5.1-19.9,12.5-27.4,21.6c-7.5,9.1-12.9,19.7-16,31
	c-14.3-10-30.8-16.2-48.1-18.1c-17.3-1.9-34.8,0.5-50.9,7.1c-1.3,0.5-2.6,1.1-3.8,1.7c-0.5-12.1-4.1-23.8-10.6-34
	c-6.5-10.2-15.6-18.5-26.4-24c-10.8-5.5-22.8-8.1-34.9-7.4c-12.1,0.7-23.8,4.6-33.8,11.3c3-9.9,3.4-20.3,1.1-30.4
	c-2.3-10.1-7.1-19.4-14-27c-6.9-7.6-15.7-13.4-25.5-16.6c-9.8-3.2-20.3-3.9-30.4-1.9c-10.1,2-19.5,6.6-27.4,13.3
	c-7.8,6.7-13.7,15.4-17.2,25.1c-3.5,9.7-4.4,20.2-2.6,30.3c1.8,10.2,6.1,19.7,12.7,27.7c-9.1,0.5-18,2.1-26.8,4.6
	c-0.8-36.9-15.6-72.1-41.3-98.5c-25.7-26.4-60.5-42.1-97.4-43.9c-36.9-1.8-73,10.4-101.2,34.2c-28.2,23.8-46.3,57.4-50.8,94
	c-3.5-8-8.7-15.1-15.2-20.9c-6.5-5.8-14.2-10.1-22.5-12.6c-8.3-2.5-17.1-3.3-25.7-2.1c-8.6,1.1-16.9,4.1-24.3,8.8
	c-7.4,4.6-13.7,10.8-18.5,18.1c-4.8,7.3-7.9,15.5-9.3,24.1c-1.3,8.6-0.8,17.4,1.6,25.8c2.4,8.4,6.5,16.1,12.1,22.8
	c-9-4.2-18.7-6.4-28.6-6.5c-9.9-0.1-19.7,2-28.7,6c-9,4-17.1,10-23.6,17.4c-6.5,7.4-11.4,16.2-14.2,25.6
	c-11.7-8.8-25.5-14.4-40-16.5c-14.5-2.1-29.3-0.5-43,4.6c-1.1,0.4-2.2,0.8-3.2,1.3c-0.1-10.2-2.8-20.1-8-28.9
	c-5.2-8.8-12.6-16-21.5-20.9c-8.9-4.9-19-7.4-29.1-7.1c-10.2,0.2-20.1,3.2-28.7,8.6c3.7-10.8,3.6-22.6-0.3-33.4
	C79.7,345,72.3,335.9,62.4,330c-9.8-5.9-21.4-8.3-32.7-6.7c-11.4,1.6-21.8,7-29.7,15.3V545.8z"/>
</svg>
