<svg id="Layer_1" data-name="Layer 1" xmlns="http://www.w3.org/2000/svg" viewBox="0 0 116.02 154"><defs><style>.cls-1{fill:#ee4e37;}.cls-2{fill:#292663;}.cls-3{fill:#fff;}</style></defs><title>cybillogo</title><path class="cls-1" d="M598.81,483.7v17.9c-7.22,8.48-21,25.13-34,39.15-.73.74-1.47,1.47-2.1,2.2-8.06,8.59-15.6,15.92-20.83,19.58a19.38,19.38,0,0,1-2.2,1.46,7.77,7.77,0,0,1-3.14,1c-7.86,0-11.3-17.59-17.8-24.49a8.45,8.45,0,0,0-2.09-1.79,6.67,6.67,0,0,0-3.45-1c-3.25,0-10.58,5.55-18.22,12.24-.73.63-1.46,1.26-2.2,2-2.72,2.42-5.45,5-8.06,7.44a86.4,86.4,0,0,1-1.89-18.95V483.7l58.84-20.31Z" transform="translate(-482.81 -463.39)"/><path class="cls-2" d="M598.83,511.41v29c0,53.69-42.82,61.81-58,77-14.61-12.16-43-19.73-53.76-49.84,9.28-10.08,20.65-21.38,24.8-21.38,5.74,0,9.47,27.67,25.17,27.67,10.93,0,45.62-42.58,61.81-62.43" transform="translate(-482.81 -463.39)"/><path class="cls-3" d="M499,494.59a5,5,0,0,1-4.08,5V550c-.74.63-1.47,1.26-2.2,2V499.61a5.19,5.19,0,1,1,6.28-5" transform="translate(-482.81 -463.39)"/><path class="cls-3" d="M522.91,486.32a5.06,5.06,0,0,1-4.19,5v49.2a8.4,8.4,0,0,0-2.09-1.78V491.34a5.07,5.07,0,0,1-4.08-5,5.18,5.18,0,1,1,10.36,0" transform="translate(-482.81 -463.39)"/><path class="cls-3" d="M546.05,477.31a5.16,5.16,0,0,1-4.19,5v80.19a20.51,20.51,0,0,1-2.2,1.47V482.34a5.19,5.19,0,0,1,1.15-10.26,5.25,5.25,0,0,1,5.24,5.23" transform="translate(-482.81 -463.39)"/><path class="cls-3" d="M568.87,486.21a5.08,5.08,0,0,1-4.09,5v49.51c-.73.73-1.46,1.47-2.09,2.2V491.24a5.18,5.18,0,1,1,6.18-5" transform="translate(-482.81 -463.39)"/></svg>