<svg id="Layer_1" data-name="Layer 1" xmlns="http://www.w3.org/2000/svg" viewBox="0 0 335.43 42.58"><defs><style>.cls-1{fill:#ee4e37;}.cls-2{fill:#292663;}.cls-3{fill:#fff;}</style></defs><title>cybilsvglogo</title><path class="cls-1" d="M404.62,525.47v4.9c-2,2.32-5.76,6.88-9.31,10.72-.2.2-.4.4-.57.6a44.61,44.61,0,0,1-5.71,5.36,6.93,6.93,0,0,1-.6.4,2.17,2.17,0,0,1-.86.29c-2.15,0-3.09-4.82-4.87-6.71a2.36,2.36,0,0,0-.57-.49,1.89,1.89,0,0,0-.95-.29c-.89,0-2.89,1.52-5,3.36-.2.17-.4.34-.6.54-.74.66-1.49,1.38-2.2,2a23.37,23.37,0,0,1-.52-5.19V525.47L389,519.91Z" transform="translate(-372.87 -519.48)"/><path class="cls-2" d="M404.63,533.05v8c0,14.69-11.72,16.92-15.89,21.06-4-3.32-11.77-5.4-14.71-13.64,2.54-2.76,5.65-5.85,6.79-5.85,1.57,0,2.59,7.57,6.89,7.57,3,0,12.49-11.65,16.92-17.09" transform="translate(-372.87 -519.48)"/><path class="cls-3" d="M377.31,528.45a1.38,1.38,0,0,1-1.12,1.37v13.79c-.2.17-.4.34-.6.54V529.82a1.42,1.42,0,1,1,1.72-1.37" transform="translate(-372.87 -519.48)"/><path class="cls-3" d="M383.85,526.18a1.4,1.4,0,0,1-1.15,1.38V541a2.36,2.36,0,0,0-.57-.49v-13a1.4,1.4,0,0,1-1.12-1.38,1.43,1.43,0,0,1,1.4-1.43,1.44,1.44,0,0,1,1.44,1.43" transform="translate(-372.87 -519.48)"/><path class="cls-3" d="M390.18,523.72a1.4,1.4,0,0,1-1.15,1.37v22a6.93,6.93,0,0,1-.6.4V525.09a1.42,1.42,0,0,1,.32-2.8,1.43,1.43,0,0,1,1.43,1.43" transform="translate(-372.87 -519.48)"/><path class="cls-3" d="M396.43,526.15a1.39,1.39,0,0,1-1.12,1.38v13.56c-.2.2-.4.4-.57.6V527.53a1.42,1.42,0,1,1,1.69-1.38" transform="translate(-372.87 -519.48)"/><path class="cls-3" d="M402.61,528a1.41,1.41,0,0,1-1.14,1.38v4.65c-.19.22-.39.45-.59.7v-5.35a1.42,1.42,0,1,1,1.73-1.38" transform="translate(-372.87 -519.48)"/><path class="cls-2" d="M436.79,539a6.93,6.93,0,0,0-3.75-1.19,5.24,5.24,0,0,0-1.92.34,4.75,4.75,0,0,0-1.56.94,4.42,4.42,0,0,0-1.05,1.45,4.59,4.59,0,0,0-.37,1.89,4.45,4.45,0,0,0,.37,1.84,4.56,4.56,0,0,0,1,1.45,4.48,4.48,0,0,0,1.56,1A5.65,5.65,0,0,0,433,547a6.13,6.13,0,0,0,3.75-1.31v5.73a13.33,13.33,0,0,1-5,1.08,12.51,12.51,0,0,1-4.2-.7,10.78,10.78,0,0,1-3.52-2,10.13,10.13,0,0,1-2.43-3.17,9.25,9.25,0,0,1-.91-4.11,9.76,9.76,0,0,1,.87-4.15,10.05,10.05,0,0,1,2.37-3.24,10.89,10.89,0,0,1,3.58-2.12,12.71,12.71,0,0,1,4.44-.76,11.1,11.1,0,0,1,4.82,1Z" transform="translate(-372.87 -519.48)"/><polygon class="cls-2" points="74.03 28.43 65.01 13.26 72.64 13.26 77.63 22.27 82.46 13.26 90.02 13.26 73.61 42.59 66.23 42.59 74.03 28.43"/><path class="cls-2" d="M471.14,519.89v15a8.21,8.21,0,0,1,6.08-2.47,9.78,9.78,0,0,1,4,.8,9.49,9.49,0,0,1,3.07,2.13,9.79,9.79,0,0,1,2,3.18,10.27,10.27,0,0,1,.73,3.89,10.5,10.5,0,0,1-.74,3.94,9.71,9.71,0,0,1-5.21,5.37,9.53,9.53,0,0,1-3.89.79,7.33,7.33,0,0,1-6-2.69v2.1h-6.87v-32Zm8.66,22.59a4.17,4.17,0,0,0-.34-1.68,4.31,4.31,0,0,0-.95-1.38,4.52,4.52,0,0,0-1.41-.94,4.16,4.16,0,0,0-1.74-.35,4.35,4.35,0,0,0-3.1,1.25,4.65,4.65,0,0,0-.95,1.38,4.17,4.17,0,0,0,.93,4.69,4.81,4.81,0,0,0,1.43.92,4.5,4.5,0,0,0,3.43,0,4.17,4.17,0,0,0,1.39-.92,4.87,4.87,0,0,0,.95-1.37,3.82,3.82,0,0,0,.36-1.62" transform="translate(-372.87 -519.48)"/><path class="cls-2" d="M489.32,524.43a3.24,3.24,0,0,1,.29-1.35,3.58,3.58,0,0,1,.8-1.12,3.83,3.83,0,0,1,1.18-.75,3.84,3.84,0,0,1,2.88,0,3.83,3.83,0,0,1,1.18.75,3.58,3.58,0,0,1,.8,1.12,3.29,3.29,0,0,1,0,2.7,3.7,3.7,0,0,1-.8,1.12,3.85,3.85,0,0,1-5.24,0,3.7,3.7,0,0,1-.8-1.12,3.24,3.24,0,0,1-.29-1.35m7,27.59h-6.58V532.74h6.58Z" transform="translate(-372.87 -519.48)"/><rect class="cls-2" x="127.98" y="0.41" width="6.58" height="32.13"/><rect class="cls-2" x="139.07" y="0.41" width="6.58" height="32.13"/><path class="cls-2" d="M546.79,538.08a8.71,8.71,0,0,0-3.78-.94,3,3,0,0,0-1.56.36,1.11,1.11,0,0,0-.6,1,1.14,1.14,0,0,0,.1.53.93.93,0,0,0,.42.38,4,4,0,0,0,1,.33l1.67.36a8.2,8.2,0,0,1,4.32,1.95,4.78,4.78,0,0,1,1.43,3.57,6.17,6.17,0,0,1-2.62,5.14,9.38,9.38,0,0,1-3,1.39,14.31,14.31,0,0,1-3.82.49,16.2,16.2,0,0,1-7.9-2.15l2.54-4.65a10.36,10.36,0,0,0,5.55,1.89,2.81,2.81,0,0,0,1.58-.4,1.15,1.15,0,0,0,.62-1,1.51,1.51,0,0,0-.1-.6.94.94,0,0,0-.4-.43,3.56,3.56,0,0,0-.91-.36c-.39-.11-.91-.23-1.56-.35a9.2,9.2,0,0,1-4.52-1.83,4.38,4.38,0,0,1-1.3-3.36,6.35,6.35,0,0,1,.62-2.82,5.94,5.94,0,0,1,1.77-2.13,8.57,8.57,0,0,1,2.8-1.34,13.27,13.27,0,0,1,3.64-.47,17.42,17.42,0,0,1,6.36,1.2Z" transform="translate(-372.87 -519.48)"/><path class="cls-2" d="M551.67,542.11a9.35,9.35,0,0,1,.84-3.94,9.62,9.62,0,0,1,2.33-3.18,11,11,0,0,1,3.54-2.13,12.57,12.57,0,0,1,4.49-.78,12.93,12.93,0,0,1,4.46.76,11.09,11.09,0,0,1,3.56,2.11,9.47,9.47,0,0,1,2.34,3.22,10,10,0,0,1,.84,4.13,9.76,9.76,0,0,1-3.2,7.34,10.41,10.41,0,0,1-3.58,2.09,13.29,13.29,0,0,1-4.53.74,12.67,12.67,0,0,1-4.43-.74,10,10,0,0,1-3.51-2.11,9.8,9.8,0,0,1-2.31-3.27,10.39,10.39,0,0,1-.84-4.24m7,.08a4.34,4.34,0,0,0,.34,1.75,4.78,4.78,0,0,0,.91,1.39,4.12,4.12,0,0,0,1.35.93,4.19,4.19,0,0,0,1.65.33,4.24,4.24,0,0,0,1.66-.33,4.08,4.08,0,0,0,1.34-.93,4.59,4.59,0,0,0,.91-1.39,4.26,4.26,0,0,0,.35-1.72,4.18,4.18,0,0,0-.35-1.68,4.71,4.71,0,0,0-.91-1.39,4.19,4.19,0,0,0-4.65-.92,4.1,4.1,0,0,0-1.35.92,5,5,0,0,0-.91,1.37,4.06,4.06,0,0,0-.34,1.67" transform="translate(-372.87 -519.48)"/><path class="cls-2" d="M591.33,519.48l-1.21,5.31a13.65,13.65,0,0,0-1.62-.08c-2,0-3.6.77-3.6,5v3.69h4.66v3.81H584.9v14.49h-5.69V537.24H576v-3.81h3.14v-5.66c0-5.9,4-8.29,7.2-8.29Z" transform="translate(-372.87 -519.48)"/><path class="cls-2" d="M589.92,537.28v-3.85h4.47v-7.95h5.68v7.95h3.56v3.85h-3.56V546c0,.84.11,1.37.34,1.58a4,4,0,0,0,2.09.31h.55a5.49,5.49,0,0,0,.58,0v4l-2.72.1c-2.71.09-4.56-.36-5.55-1.33a3.78,3.78,0,0,1-1-2.86V537.28Z" transform="translate(-372.87 -519.48)"/><polygon class="cls-2" points="252.84 13.89 257.38 23.81 262.83 13.89 269.77 13.89 259.97 32.49 254.9 32.49 250.45 22.47 245.74 32.49 240.67 32.49 231.5 13.89 239.56 13.89 243.47 23.81 247.91 13.89 252.84 13.89"/><path class="cls-2" d="M665.46,532.58v19.15h-6.58v-3.11a9.23,9.23,0,0,1-3.17,2.92,8.78,8.78,0,0,1-4.14.93,8.19,8.19,0,0,1-6.5-2.79,11.06,11.06,0,0,1-2.43-7.51,10.53,10.53,0,0,1,2.54-7.44A8.87,8.87,0,0,1,652,532a8.1,8.1,0,0,1,4,.92,7.9,7.9,0,0,1,2.85,2.84v-3.15Zm-6.3,9.56a4.87,4.87,0,0,0-1.27-3.55,5.23,5.23,0,0,0-6.91,0,4.9,4.9,0,0,0-1.26,3.56,4.8,4.8,0,0,0,1.27,3.53,5.29,5.29,0,0,0,6.9,0,4.8,4.8,0,0,0,1.27-3.53" transform="translate(-372.87 -519.48)"/><path class="cls-2" d="M670,551.73V532.58h6.76v4.51a8.33,8.33,0,0,1,2.86-3.7,7.63,7.63,0,0,1,4.39-1.23l.86,0,.87.08-.68,6.15a7.76,7.76,0,0,0-1.27-.3,7.31,7.31,0,0,0-1.21-.1,5.24,5.24,0,0,0-4,1.51,6,6,0,0,0-1.42,4.28v7.92Z" transform="translate(-372.87 -519.48)"/><path class="cls-2" d="M708.3,543.5H693.5a4.82,4.82,0,0,0,1.16,3.42,4.17,4.17,0,0,0,3.21,1.21,5.45,5.45,0,0,0,2.64-.58,3.78,3.78,0,0,0,1.62-1.71l5.17,2a6.69,6.69,0,0,1-3.28,3.4,12.53,12.53,0,0,1-5.76,1.19,11.67,11.67,0,0,1-8.16-2.78,9.39,9.39,0,0,1-3.08-7.32,9.89,9.89,0,0,1,3.08-7.44,10.77,10.77,0,0,1,7.77-3,9.94,9.94,0,0,1,7.64,3q2.79,3,2.79,8.21Zm-6.76-3.81a4.06,4.06,0,0,0-1.27-2.62,3.76,3.76,0,0,0-2.63-1,3.85,3.85,0,0,0-2.67.9,4.66,4.66,0,0,0-1.32,2.7Z" transform="translate(-372.87 -519.48)"/></svg>