<svg id="Layer_1" data-name="Layer 1" xmlns="http://www.w3.org/2000/svg" viewBox="0 0 120 9.55"><defs><style>.cls-1{fill:#292663;}</style></defs><title>line_2</title><path class="cls-1" d="M0,9c9.84-2,19.79-3.51,29.76-4.78,2.49-.31,5-.62,7.48-.88s5-.56,7.51-.78l7.51-.66,7.52-.56C61,1.2,62.29,1.11,63.55,1L67.32.78c2.51-.18,5-.38,7.53-.51L78.62.11C79.88.07,81.14,0,82.4,0c2.52,0,5,0,7.55.13A176.44,176.44,0,0,1,120,3.71l0,.6c-2.53.36-5,.57-7.55.78s-5,.31-7.51.49c-5,.33-10,.46-15,.67-2.5.08-5,.1-7.48.12H78.71L75,6.3c-2.5-.08-5-.09-7.49-.13s-5-.06-7.49,0l-7.49.14L45,6.56c-2.5.05-5,.18-7.49.28s-5,.23-7.49.37C20,7.74,10.06,8.47.1,9.55Z" transform="translate(0 0)"/></svg>