<?xml version="1.0" encoding="utf-8"?>
<!-- Generator: Adobe Illustrator 23.0.0, SVG Export Plug-In . SVG Version: 6.00 Build 0)  -->
<svg version="1.1" id="Layer_1" xmlns="http://www.w3.org/2000/svg" xmlns:xlink="http://www.w3.org/1999/xlink" x="0px" y="0px"
	 viewBox="0 0 1000 717" style="enable-background:new 0 0 1000 717;" xml:space="preserve">
<style type="text/css">
	.st0{opacity:0.45;fill:#EE4E37;enable-background:new    ;}
	.st1{opacity:0.45;fill:#F2E6FF;enable-background:new    ;}
</style>
<path class="st0" d="M209.9,399.5c4.4,0,8-3.6,8-8c0-4.4-3.6-8-8-8c-4.4,0-8,3.6-8,8C201.9,395.9,205.5,399.5,209.9,399.5z"/>
<path class="st0" d="M293.2,283.9c7.3,0,13.3-5.9,13.3-13.3c0-7.3-5.9-13.3-13.3-13.3c-7.3,0-13.3,5.9-13.3,13.3
	C279.9,278,285.9,283.9,293.2,283.9z"/>
<path class="st1" d="M8,133.8c4.4,0,8-3.6,8-8c0-4.4-3.6-8-8-8c-4.4,0-8,3.6-8,8C0,130.3,3.6,133.8,8,133.8z"/>
<path class="st0" d="M248.4,217c4.4,0,8-3.6,8-8c0-4.4-3.6-8-8-8c-4.4,0-8,3.6-8,8C240.4,213.4,244,217,248.4,217z"/>
<path class="st1" d="M992,474.5c4.4,0,8-3.6,8-8s-3.6-8-8-8c-4.4,0-8,3.6-8,8S987.6,474.5,992,474.5z"/>
<path class="st0" d="M841.2,556.7c7.3,0,13.3-5.9,13.3-13.3s-5.9-13.3-13.3-13.3c-7.3,0-13.3,5.9-13.3,13.3S833.8,556.7,841.2,556.7
	z"/>
<path class="st1" d="M334.1,716.2c4.4,0,8-3.6,8-8c0-4.4-3.6-8-8-8c-4.4,0-8,3.6-8,8C326.2,712.6,329.7,716.2,334.1,716.2z"/>
<path class="st0" d="M771.5,130.7c2.6,0,4.8-2.1,4.8-4.8c0-2.6-2.1-4.8-4.8-4.8s-4.8,2.1-4.8,4.8
	C766.7,128.5,768.9,130.7,771.5,130.7z"/>
<path class="st0" d="M720.8,81.5c7.3,0,13.3-5.9,13.3-13.3s-5.9-13.3-13.3-13.3c-7.3,0-13.3,5.9-13.3,13.3S713.5,81.5,720.8,81.5z"
	/>
<path class="st1" d="M992,9.6c2.6,0,4.8-2.1,4.8-4.8S994.7,0,992,0c-2.6,0-4.8,2.1-4.8,4.8S989.4,9.6,992,9.6z"/>
<path class="st0" d="M953.6,551.4c4.4,0,8-3.6,8-8c0-4.4-3.6-8-8-8c-4.4,0-8,3.6-8,8C945.7,547.8,949.3,551.4,953.6,551.4z"/>
</svg>
