<svg id="Layer_1" data-name="Layer 1" xmlns="http://www.w3.org/2000/svg" viewBox="0 0 103.88 150"><defs><style>.cls-1{fill:#c2bef4;}.cls-2{fill:#efedff;}.cls-3{fill:#ada2e5;}.cls-4{fill:#7b65ab;}.cls-5{fill:#61469c;}</style></defs><title>shield</title><path class="cls-1" d="M115.35,98.17C99.75,89.34,84.49,74.28,71.7,55.09l-.17-.1c-12.79,4.43-28,1.87-43.65-7.32l-.6-.35.85,29.16c3,45.19,18.37,64.87,43.19,106.89l.6.35c24.81-13.37,40.23-15.25,43.19-57L116,98.51Z" transform="translate(-17.31 -42.77)"/><path class="cls-2" d="M120.6,93.62C105,84.8,89.74,69.73,77,50.55l-.17-.1C64,54.87,48.73,52.31,33.13,43.12l-.6-.35-5.08,4.65.43.25C43.49,56.86,58.74,59.42,71.53,55l.17.1c12.79,19.19,28.05,34.25,43.65,43.08l.6.34-.84,28.19c-1.93,27.26-9.18,37.53-20.87,45.09,14.61-8.63,23.94-19,26.12-49.64L121.2,94Z" transform="translate(-17.31 -42.77)"/><path class="cls-2" d="M121.2,94l-.6-.34C105,84.8,89.74,69.73,77,50.55l-.17-.1L71.53,55l.17.1c12.79,19.19,28.05,34.25,43.65,43.08l.6.34Z" transform="translate(-17.31 -42.77)"/><path class="cls-3" d="M116,98.51l-.84,28.19c-1.93,27.26-9.18,37.53-20.87,45.09,14.61-8.63,23.94-19,26.12-49.64L121.2,94Z" transform="translate(-17.31 -42.77)"/><path class="cls-4" d="M113.73,99.3C98.48,90.67,83.56,75.94,71.05,57.18l-.16-.1c-12.51,4.33-27.43,1.83-42.68-7.16l-.59-.34-5,4.54.42.25c15.25,9,30.17,11.48,42.68,7.16l.16.09c12.51,18.77,27.43,33.49,42.68,42.13l.59.32-.83,27.56c-1.89,26.67-9,36.7-20.4,44.1,14.29-8.44,23.41-18.57,25.53-48.54l.83-27.56Z" transform="translate(-17.31 -42.77)"/><path class="cls-4" d="M114.32,99.63l-.59-.33C98.48,90.67,83.56,75.94,71.05,57.18l-.16-.1-5.13,4.45.16.09c12.51,18.77,27.43,33.49,42.68,42.13l.59.32Z" transform="translate(-17.31 -42.77)"/><path class="cls-4" d="M109.19,104.07l-.83,27.56c-1.89,26.67-9,36.7-20.4,44.1,14.29-8.44,23.41-18.57,25.53-48.54l.83-27.56Z" transform="translate(-17.31 -42.77)"/><path class="cls-1" d="M105.39,107.22C89.78,98.39,74.52,83.33,61.73,64.14l-.17-.1c-12.79,4.43-28,1.87-43.65-7.32l-.6-.35.85,29.16c3,45.2,18.37,64.87,43.19,106.89l.6.35c24.81-13.37,40.23-15.24,43.19-57l.84-28.19Z" transform="translate(-17.31 -42.77)"/><path class="cls-2" d="M110.63,102.68C95,93.85,79.77,78.79,67,59.6l-.17-.1C54,63.92,38.76,61.36,23.16,52.17l-.6-.35-5.08,4.65.43.25C33.52,65.91,48.77,68.47,61.56,64l.17.1c12.79,19.19,28.05,34.25,43.66,43.08l.59.34-.84,28.19C103.21,163,96,173.28,84.27,180.84c14.61-8.63,23.94-19,26.12-49.64l.84-28.19Z" transform="translate(-17.31 -42.77)"/><path class="cls-2" d="M111.23,103l-.6-.33C95,93.85,79.77,78.79,67,59.6l-.17-.1L61.56,64l.17.1c12.79,19.19,28.05,34.25,43.66,43.08l.59.34Z" transform="translate(-17.31 -42.77)"/><path class="cls-3" d="M106,107.56l-.84,28.19C103.21,163,96,173.28,84.27,180.84c14.61-8.63,23.94-19,26.12-49.64l.84-28.19Z" transform="translate(-17.31 -42.77)"/><path class="cls-4" d="M58.56,173.29c-19.26-31.95-28.95-48-31.28-83.09l-.54-18.4C39.11,77.39,51,79.17,61.65,77c10.68,14.46,22.53,26.37,34.9,35.06L96,129.89c-2.34,32.37-12,37.26-31.29,47-1,.51-2,1-3.08,1.56Z" transform="translate(-17.31 -42.77)"/><path class="cls-5" d="M59.63,172.76c-19.26-31.95-28.95-48-31.28-83.09l-.51-17.4-1.1-.47.54,18.4c2.33,35.07,12,51.14,31.28,83.09l3.09,5.13,1.07-.54Z" transform="translate(-17.31 -42.77)"/></svg>